<?xml version="1.0" standalone="no"?>
<!DOCTYPE svg PUBLIC "-//W3C//DTD SVG 1.1//EN" "http://www.w3.org/Graphics/SVG/1.1/DTD/svg11.dtd" >
<svg xmlns="http://www.w3.org/2000/svg">
<metadata>
Created by FontForge 20120731 at Mon Jun 27 14:47:57 2016
 By admin
</metadata>
<defs>
<font id="iconfont" horiz-adv-x="1024" >
  <font-face 
    font-family="iconfont"
    font-weight="500"
    font-stretch="normal"
    units-per-em="1024"
    panose-1="2 0 6 3 0 0 0 0 0 0"
    ascent="896"
    descent="-128"
    x-height="792"
    bbox="-0.344828 -128 1030.25 896"
    underline-thickness="50"
    underline-position="-100"
    unicode-range="U+0078-E62B"
  />
<missing-glyph horiz-adv-x="374" 
d="M34 0v682h272v-682h-272zM68 34h204v614h-204v-614z" />
    <glyph glyph-name=".notdef" horiz-adv-x="374" 
d="M34 0v682h272v-682h-272zM68 34h204v614h-204v-614z" />
    <glyph glyph-name=".null" horiz-adv-x="0" 
 />
    <glyph glyph-name="nonmarkingreturn" horiz-adv-x="341" 
 />
    <glyph glyph-name="x" unicode="x" horiz-adv-x="1001" 
d="M281 543q-27 -1 -53 -1h-83q-18 0 -36.5 -6t-32.5 -18.5t-23 -32t-9 -45.5v-76h912v41q0 16 -0.5 30t-0.5 18q0 13 -5 29t-17 29.5t-31.5 22.5t-49.5 9h-133v-97h-438v97zM955 310v-52q0 -23 0.5 -52t0.5 -58t-10.5 -47.5t-26 -30t-33 -16t-31.5 -4.5q-14 -1 -29.5 -0.5
t-29.5 0.5h-32l-45 128h-439l-44 -128h-29h-34q-20 0 -45 1q-25 0 -41 9.5t-25.5 23t-13.5 29.5t-4 30v167h911zM163 247q-12 0 -21 -8.5t-9 -21.5t9 -21.5t21 -8.5q13 0 22 8.5t9 21.5t-9 21.5t-22 8.5zM316 123q-8 -26 -14 -48q-5 -19 -10.5 -37t-7.5 -25t-3 -15t1 -14.5
t9.5 -10.5t21.5 -4h37h67h81h80h64h36q23 0 34 12t2 38q-5 13 -9.5 30.5t-9.5 34.5q-5 19 -11 39h-368zM336 498v228q0 11 2.5 23t10 21.5t20.5 15.5t34 6h188q31 0 51.5 -14.5t20.5 -52.5v-227h-327z" />
    <glyph glyph-name="uniE600" unicode="&#xe600;" horiz-adv-x="1000" 
d="M941 42l-212 216q-5 6 -12 8q73 98 73 221q0 98 -47.5 182t-129.5 132.5t-179 48.5t-179 -48.5t-129.5 -132.5t-47.5 -182.5t47.5 -182.5t129.5 -132.5t179 -48.5q134 0 235 91q3 -6 7 -10l212 -217q11 -11 26.5 -11t26.5 11.5t11 27t-11 27.5zM434 180q-124 0 -212 90
t-88 217t88 216.5t212 89.5t212 -89.5t88 -216.5t-88 -217t-212 -90z" />
    <glyph glyph-name="uniE601" unicode="&#xe601;" horiz-adv-x="1000" 
d="M284 392h187h24h40h15h196q8 0 14 6t6 14.5t-6 14t-14 5.5h-196h-15h-40h-24h-187q-8 0 -14 -5.5t-6 -14t6 -14.5t14 -6z" />
    <glyph glyph-name="uniE602" unicode="&#xe602;" horiz-adv-x="1000" 
d="M746 442h-201v201q0 13 -8.5 21.5t-21 8.5t-21.5 -8.5t-9 -21.5v-201h-201q-12 0 -21 -8.5t-9 -21t9 -21.5t21 -9h201v-201q0 -12 9 -20.5t21.5 -8.5t21 8.5t8.5 20.5v201h201q12 0 21 9t9 21.5t-9 21t-21 8.5z" />
    <glyph glyph-name="uniE603" unicode="&#xe603;" 
d="M702 148q-80 -56 -178 -55q-12 0 -25 1q-2 0 -5.5 0.5t-4.5 1.5q-13 1 -19 2q-1 1 -11 3q-12 3 -19 5l-8 3q-13 4 -21 7q0 1 -4 3q-14 6 -24 11h-1q-38 22 -69 53v1h-1l-18 20q-1 1 -2 2.5t-2 2.5q-66 84 -66 192h70q3 0 4.5 2.5t0.5 4.5l-119 180q-1 3 -4 3t-4 -3
l-119 -180q-2 -2 -0.5 -4.5t4.5 -2.5h71q0 -126 71 -230l1 -1v-2q3 -3 15 -19q0 -1 2 -3.5t3 -3.5q10 -12 23 -26q2 -2 3 -2q40 -41 90 -68l2 -2q13 -7 29 -14q1 -1 3.5 -2t4.5 -1q10 -5 25 -10q10 -3 13 -4q8 -3 23 -6q13 -3 16 -4q1 0 3 -0.5t3 -0.5q5 -1 23 -3q1 -1 3 -1
h5q22 -3 40 -3q125 0 228 74q17 11 20.5 31t-8 36.5t-31 20t-36.5 -8.5zM928 401q0 125 -71 228q0 1 -0.5 2t-0.5 2q-6 7 -18 23l-1 1l-1 1q-61 75 -149 114q-1 0 -2.5 1t-2.5 1q-12 5 -28 11q-1 0 -3 0.5t-4 1.5t-3 1q-10 3 -26 7q-12 2 -14 3q-1 0 -3 0.5t-4 0.5
q-3 1 -10 2t-9 1q-1 0 -5.5 0.5t-7.5 0.5q-13 2 -31 2h-3h-3h-1q-126 0 -228 -73q-17 -11 -20.5 -31t8 -36.5t31 -20t36.5 8.5q79 56 176 55q14 0 27 -1q1 0 4 -0.5t4 -0.5q12 -2 21 -4q1 0 10 -2l20 -5q1 -1 3.5 -1.5t3.5 -0.5q12 -5 22 -9q1 0 1.5 -0.5t1.5 -0.5
q67 -29 114 -87q1 0 1 -1q69 -85 69 -194h-71q-3 0 -4.5 -3t0.5 -5l119 -180q1 -3 4 -3t4 3l119 180q1 2 -0.5 5t-4.5 3h-70z" />
    <glyph glyph-name="uniE604" unicode="&#xe604;" 
d="M855 629q-21 28 -42 45.5t-42 24.5t-31 9t-30 3q-58 3 -117.5 -28.5t-79.5 -57.5q-30 39 -90 64t-121 19q-33 -4 -72 -29q-32 -21 -53.5 -51t-32.5 -67.5t-9 -81t17.5 -82t37.5 -71.5t47 -60t47 -48q33 -32 68 -62q34 -29 65 -50q16 -12 51 -33.5t44 -25.5q9 2 45.5 23.5
t88 56.5t106.5 91t87 114q6 11 14.5 30t19.5 54.5t15 70t-3 74t-30 68.5zM821 460q-15 -64 -51.5 -123.5t-77.5 -99t-81.5 -70t-66 -44.5t-29.5 -14t-31 15t-69 46t-84 71t-79.5 98t-53.5 119q-4 14 -2 35.5t9 46t21 47t34 39t47.5 23.5t62.5 -1q9 -2 31 -11t58 -33t60 -52
q23 28 48 51q22 19 50.5 34t58.5 13h4q10 -1 16.5 -1.5t21 -3t25 -6.5t25 -11t24 -16.5t19 -24t13.5 -32t3.5 -42t-6.5 -53.5z" />
    <glyph glyph-name="uniE605" unicode="&#xe605;" 
d="M512.5 893q-103.5 0 -198 -40.5t-162.5 -108.5t-108 -162.5t-40 -198t40 -198t108 -162.5t162.5 -108.5t198 -40.5t197.5 40.5t162 108.5t108.5 162.5t40.5 198t-40.5 198t-108.5 162.5t-162 108.5t-197.5 40.5zM658 368h-105v-377h-157v377h-74v134h74v86q0 26 7 51
t23.5 50.5t49 41t78.5 15.5h116v-130h-84q-13 0 -23 -8t-10 -28v-78h119z" />
    <glyph glyph-name="uniE606" unicode="&#xe606;" 
d="M580 384q-9 0 -16 -7t-7 -17q0 -8 7 -15t16 -7q13 0 21.5 6.5t8.5 15.5q0 10 -8.5 17t-21.5 7zM503 497q14 0 22 8t8 21t-8 21t-22 8t-24 -8t-10 -21t10 -21t24 -8zM512 895q-104 0 -198.5 -40.5t-163 -109t-109 -163t-40.5 -198.5t40.5 -199t109 -163.5t163 -109
t198.5 -40.5t199 40.5t163.5 109t109 163.5t40.5 199t-40.5 198.5t-109 163t-163.5 109t-199 40.5zM416 254q-36 0 -83 13l-84 -42l24 72q-94 66 -94 158q0 84 69 142t168 58q87 0 154.5 -46.5t82.5 -118.5q-12 2 -22 2q-85 0 -143 -55t-58 -132q0 -23 6 -50q-6 -1 -20 -1z
M763 172l17 -60l-63 36q-5 -1 -22 -5t-28 -5.5t-22 -1.5q-84 0 -142 50t-58 121.5t58 121.5t142 50q80 0 140.5 -50.5t60.5 -121.5q0 -74 -83 -135zM338 555q-14 0 -25 -8t-11 -21t11 -21t25 -8q13 0 21.5 8t8.5 21t-8.5 21t-21.5 8zM711 384q-10 0 -17 -7t-7 -17
q0 -8 7.5 -15t16.5 -7q12 0 20.5 6.5t8.5 15.5q0 10 -8.5 17t-20.5 7zM711 384z" />
    <glyph glyph-name="uniE607" unicode="&#xe607;" 
d="M863 -43q-28 -2 -85 10.5t-86 11.5q-24 -2 -47.5 -17.5t-48 -31t-53.5 -15.5q-53 -1 -116.5 12.5t-75.5 29.5q-1 3 -2 8t0.5 10.5t5.5 9t14 2.5t24 -8q1 0 7 -2.5t18 -6t27 -6.5t35.5 -5t40.5 -2q40 2 81.5 30.5t68.5 33.5q34 8 91 -7.5t79 -13.5q13 1 24.5 7t18.5 12.5
t13.5 14.5t7.5 9q-3 49 -26.5 100t-55.5 88t-53.5 58t-34.5 31q-2 1 -17 11t-27.5 19t-29.5 26.5t-28 36.5q-23 -11 -62 -20t-71 -9q-63 0 -124 28q-11 -23 -29.5 -41t-59.5 -51q-21 -16 -47.5 -44.5t-55 -66.5t-48.5 -82.5t-20 -81.5q2 -11 19 -21t45 -3q21 -5 20 -22
t-20 -20q-42 -7 -74.5 9t-32.5 33q0 24 4 48t10 44t16 42t18.5 38t22.5 35.5t22.5 30t23.5 27.5t20.5 22.5l19.5 19.5l14 13q9 10 32.5 29t37 32t25.5 37t12 52q0 29 -43 151.5t-43 168.5l150 42q1 -3 7 -13t8 -13.5t7.5 -12.5t8.5 -12.5t8.5 -10.5t10 -10t10.5 -6.5t12 -5
t13 -1.5q9 0 16.5 2t15.5 8t12.5 10t12.5 15t11 15t11.5 18t10.5 17q145 -41 145 -42q0 -45 -21.5 -112t-43 -125.5t-21.5 -82.5q0 -21 8.5 -40t24.5 -35t30 -27.5t35 -26t30 -21.5q18 -14 36 -30.5t43.5 -48.5t44.5 -65.5t33 -80.5t14 -95q0 -17 -28 -39t-57 -25zM692 789
q0 2 -19 6.5t-43 10.5l-23 5q-10 -21 -17.5 -33t-20 -26t-30 -20.5t-39.5 -6.5q-23 0 -40.5 7t-30.5 22t-19.5 25.5t-16.5 31.5q-2 2 -43 -9t-42 -13q0 -24 42.5 -146.5t42.5 -130.5q0 -37 -4 -62q0 -1 1.5 -1.5t2.5 -0.5q42 -19 107 -21q63 -2 107 21q4 2 9 3q-9 29 -9 61
q0 8 42.5 130t42.5 147z" />
    <glyph glyph-name="uniE608" unicode="&#xe608;" 
d="M455.5 91q-95.5 0 -177 47.5t-129 129t-47.5 177t47.5 177t129 129t177 47.5t177 -47.5t129 -129t47.5 -177t-47.5 -177t-129 -129t-177 -47.5zM455.5 711q-110.5 0 -188.5 -78t-78 -188.5t78 -188.5t188.5 -78t188.5 78t78 188.5t-78 188.5t-188.5 78zM868 -22
q-22 0 -38 16l-184 184q-16 16 -16 38t15.5 38t38 16t38.5 -16l184 -185q16 -15 16 -37.5t-16 -38t-38 -15.5z" />
    <glyph glyph-name="uniE609" unicode="&#xe609;" 
d="M508 780q70 0 133.5 -47.5t63.5 -93.5v-141q0 -50 -21 -112t-62 -94q-25 -20 -21 -51.5t32 -44.5l246 -116h2q2 -1 3.5 -2t4.5 -2.5t5 -4t4 -6t3 -9t1 -11.5v-55h-789v57q0 22 23 33l248 117q29 13 32.5 44t-20.5 51q-40 32 -63 94.5t-23 111.5v141q0 45 64 93t134 48z
M508 836q-61 0 -120.5 -29.5t-97 -76t-37.5 -91.5v-141q0 -58 27 -132.5t81 -117.5l-248 -117q-7 -3 -16 -8t-25 -19.5t-16 -28.5v-85q0 -23 16.5 -39.5t40.5 -16.5h789q24 0 40.5 16.5t16.5 39.5v85q0 14 -14 28.5t-28 20.5l-15 7l-245 117q53 41 78.5 114t25.5 136v141
q0 45 -37 91.5t-96.5 76t-119.5 29.5z" />
    <glyph glyph-name="uniE60A" unicode="&#xe60a;" 
d="M788 -128h-670q-49 0 -83.5 34.5t-34.5 83.5v394q0 34 9 58.5t24 35.5t28.5 16t28.5 5h10q8 0 24 -0.5t26 -0.5h24l-1 -78h-1h-2h-2q-2 0 -4 -0.5t-4 -0.5h-6q-3 0 -6 1q-54 1 -56 1q-4 -1 -6.5 -2t-4.5 -9.5t-2 -25.5v-394q0 -16 11.5 -27.5t27.5 -11.5h670q21 0 45 71
l112 367q-2 15 -13 25t-26 10h-197q-17 0 -28.5 11.5t-11.5 27.5v295q0 25 -17 42t-41.5 17t-41.5 -17t-17 -42v-19h-80v19q0 57 40.5 97.5t97.5 40.5t97.5 -40.5t40.5 -97.5v-255h158q49 0 83.5 -35t34.5 -84q0 -6 -2 -11l-114 -374q-6 -17 -10 -28.5t-15 -32t-22.5 -33.5
t-31 -23t-41.5 -10zM157 420v78q57 0 104.5 11.5t79 29t56 41.5t38.5 47t22.5 46.5t11.5 39t3 26.5h80q0 -19 -5 -43t-18 -55t-33 -61t-51.5 -59.5t-71 -51.5t-95.5 -35.5t-121 -13.5zM197 463h79v-551h-79v551z" />
    <glyph glyph-name="uniE60B" unicode="&#xe60b;" 
d="M471 386q-67 -3 -113.5 -35t-46.5 -76q0 -45 47 -74t113 -26q67 3 114 38.5t47 80.5q0 44 -46.5 69.5t-114.5 22.5zM532 236q-22 -27 -57.5 -35t-75.5 12q-11 6 -17 16t-7 17v7q1 0 -0.5 8t2.5 21.5t10.5 26.5t24 24t42.5 14q31 3 53 -8.5t30 -30t6.5 -38.5t-11.5 -34z
M430 281q-12 -1 -20.5 -10t-8.5 -20t9 -17t21.5 -4.5t21 9.5t8.5 19t-8.5 17.5t-22.5 5.5zM472 293q-10 -8 -4 -17q6 -10 16 -2t5 17q-6 10 -17 2zM512 829q-91 0 -173.5 -35.5t-142.5 -95t-95 -142.5t-35 -174t35 -173.5t95 -142.5t142.5 -95t173.5 -35t174 35t142.5 95
t95 142.5t35.5 173.5t-35.5 174t-95 142.5t-142.5 95t-174 35.5zM712 255q-26 -55 -100.5 -85t-146.5 -24q-36 3 -67 10.5t-62.5 22t-52 41.5t-24.5 64v14q0 10 9.5 38t29.5 55q3 4 8 10t20 23t31 31.5t38.5 29.5t43.5 22q85 29 85 -43q-6 -17 -4 -24.5t21 -1.5q3 1 8 3.5
t19.5 6.5t27 6t27 -1t23.5 -11q11 -11 12 -26t-4 -24l-4 -9q-10 -11 11 -15q10 -2 21.5 -8.5t25 -20.5t14.5 -34.5t-10 -49.5zM638 470q-6 0 -10 4t-4 10t4 10.5t10 4.5q4 1 10 1.5t21 -2t26 -9.5t19 -25.5t5 -45.5q0 -1 -1 -2q-1 -12 -14 -12q-6 0 -10.5 4t-4.5 10l1 24
q-5 38 -52 28zM793 391h-1q-2 -18 -20 -18q-9 0 -15 5.5t-6 13.5l4 21q10 34 -7 71q-14 24 -39.5 37.5t-42.5 15t-23 -0.5l-19 -5q-9 0 -15.5 6.5t-6.5 14.5q0 17 16 21v1h2q42 8 73 1q24 -5 45 -17.5t39.5 -35.5t22 -55t-6.5 -76z" />
    <glyph glyph-name="uniE60C" unicode="&#xe60c;" 
d="M512 820q91 0 173.5 -34.5t142.5 -93t95 -139t35 -169.5t-35 -169.5t-95 -139t-142.5 -93t-173.5 -34.5t-173.5 34.5t-142.5 93t-95 139t-35 169.5t35 169.5t95 139t142.5 93t173.5 34.5zM512 764q-76 0 -145 -28.5t-123 -80.5q-55 -54 -87.5 -126t-32.5 -145t32.5 -145
t87.5 -126q54 -52 123 -80t145 -28q74 0 148 32t129 85q54 53 82.5 120.5t28.5 141.5q0 72 -32 139.5t-88 122.5q-56 54 -125.5 86t-142.5 32zM340 482q1 69 12 94q14 34 40 57q28 25 63.5 37t74.5 12q76 0 132 -49q46 -40 46 -118q0 -36 -13 -62q-19 -39 -51 -69
q-44 -41 -58.5 -58.5t-21.5 -42.5q-7 -21 -7 -24h-76q0 7 7.5 35.5t23.5 50t57 62.5t52.5 60t11.5 56t-27 65.5t-78 28.5q-116 0 -116 -135h-72v0zM559 95h-80v87h80v-87v0zM559 95z" />
    <glyph glyph-name="uniE60D" unicode="&#xe60d;" 
d="M793.5 794q-52.5 0 -90.5 -37.5t-38 -90.5q0 -10 3 -23l-394 -170q-38 39 -92 39q-53 0 -90.5 -37.5t-37.5 -90.5t37.5 -90.5t90.5 -37.5q32 0 63 17l289 -181q-8 -22 -8 -42q0 -53 37.5 -90.5t90.5 -37.5t90.5 37.5t37.5 90.5t-37.5 90.5t-90.5 37.5q-48 0 -84 -33
l-278 174q18 31 18 65q0 15 -5 33l390 168q39 -47 99 -47q52 0 90 37.5t38 90.5t-38 90.5t-90.5 37.5zM118 384q0 26 19 45t45 19t45 -19t19 -45t-19 -45t-45 -19t-45 19t-19 45zM654.5 114q26.5 0 45 -19t18.5 -45.5t-18.5 -45t-45 -18.5t-45.5 18.5t-19 45t19 45.5
t45.5 19zM793.5 602q-26.5 0 -45.5 18.5t-19 45t19 45.5t45.5 19t45 -19t18.5 -45.5t-18.5 -45t-45 -18.5z" />
    <glyph glyph-name="uniE60E" unicode="&#xe60e;" 
d="M165 453h694v-138h-694v138z" />
    <glyph glyph-name="uniE60F" unicode="&#xe60f;" horiz-adv-x="1031" 
d="M1025 651q-12 10 -38 6.5t-38 -15.5l-435 -431l-438 434q-4 4 -9 6.5t-10 3.5t-10 1.5t-10 -0.5t-9 -2l-8 -2q-4 -1 -6.5 -2t-3.5 -2l-2 -1q-11 -11 -7.5 -35.5t15.5 -36.5l459 -453v-1l2 -2q8 -4 40 -4q39 1 36 8l1 1l1 -1l464 466q10 9 11 24.5t-2 26.5z" />
    <glyph glyph-name="uniE610" unicode="&#xe610;" 
d="M512 896q-104 0 -199 -40.5t-163 -109t-108.5 -163t-40.5 -199t40.5 -199t108.5 -163t163 -109t199 -40.5t199 40.5t163 109t108.5 163t40.5 199t-40.5 199t-108.5 163t-163 109t-199 40.5zM512 -63q-91 0 -174 35.5t-143 95.5t-95 142.5t-35 174t35 174t95 142.5
t143 95.5t174 35.5t174 -35.5t143 -95.5t95 -142.5t35 -174t-35 -174t-95 -142.5t-143 -95.5t-174 -35.5zM470 726h82v-420h-82v420zM470 388h351v-82h-351v82z" />
    <glyph glyph-name="uniE611" unicode="&#xe611;" 
d="M367 54l-302 302l67 67l235 -234l525 525l67 -67z" />
    <glyph glyph-name="uniE612" unicode="&#xe612;" 
d="M864 771q46 0 79 -27t33 -65v-424q0 -38 -33 -65t-79 -27h-21h-75l32 -68l16 -33l-175 95l-11 6h-12h-458q-46 0 -79 27t-33 65v424q0 38 33 65t79 27h704zM864 819h-704q-66 0 -113 -41t-47 -99v-424q0 -58 47 -99t113 -41h458l304 -166l-79 166h21q66 0 113 41t47 99
v424q0 58 -47 99t-113 41zM518 281h-320q-13 0 -22.5 9.5t-9.5 22.5t9.5 22.5t22.5 9.5h320q13 0 22.5 -9.5t9.5 -22.5t-9.5 -22.5t-22.5 -9.5zM608 448h-416q-13 0 -22.5 9.5t-9.5 22.5t9.5 22.5t22.5 9.5h416q13 0 22.5 -9.5t9.5 -22.5t-9.5 -22.5t-22.5 -9.5zM832 615
h-640q-13 0 -22.5 9.5t-9.5 22.5t9.5 22.5t22.5 9.5h640q13 0 22.5 -9.5t9.5 -22.5t-9.5 -22.5t-22.5 -9.5z" />
    <glyph glyph-name="uniE613" unicode="&#xe613;" 
d="M825 395q-5 80 -15 156q-2 20 -11 43.5t-30 54t-50.5 55t-78 41.5t-107.5 17q-60 0 -109.5 -14.5t-81.5 -36.5t-55 -51.5t-34.5 -55.5t-15.5 -53q-10 -57 -16 -116l-57 52l-12 4l-11 -8l-71 -142q-5 -10 0 -24q3 -5 9.5 -9.5t9.5 -4.5h41q-23 -33 -23 -57q0 -82 84 -123
v0q51 -26 158.5 -39.5t183.5 -9.5q190 0 307.5 58t117.5 133q0 25 -10.5 47t-25 35.5t-34.5 24t-34 15.5t-29 8zM287 532q1 3 2.5 9.5t9 25.5t18 36t30 37.5t44 35.5t61.5 25.5t80 10.5q56 0 100 -17.5t70 -45t40.5 -57.5t17.5 -60q17 -168 17 -186q0 -16 -77.5 -36
t-114.5 -20h-107l19 37q5 10 -2 24q-1 4 -5 7t-7 5l-3 1h-145l-64 26zM140 345q-12 -1 -13 2l4 11l23 54q6 12 9 12t9 -7l75 -66q7 -7 9 -8l11 -5l44 -16h135q4 0 6.5 -1.5t2.5 -2.5l1 -1l-71 -116q-1 -1 -1.5 -2t-2.5 -2.5t-5 -1t-5.5 1.5t-3.5 3l-1 1q-32 74 -38 83
q-3 3 -28.5 21t-33.5 25q-6 6 -10 7l-11 3zM533 126q-67 -3 -160 6.5t-128 26.5v-1q-48 19 -63.5 40t-15.5 48q0 22 34 57l38 -1q44 -23 54 -37t49 -100q1 -2 5 -6t7 -6l3 -3l25 -3q11 1 19 6q3 1 5.5 4t3.5 5l2 2l43 70h134q3 0 8.5 0.5t22 3t32.5 5t37.5 6.5t40 8.5
t37.5 10.5t32.5 12.5t22 15t8.5 17t-1 28.5q18 -7 26.5 -11t24 -13.5t22.5 -22.5t7 -29q0 -32 -56 -64.5t-144 -53.5t-175 -21z" />
    <glyph glyph-name="uniE614" unicode="&#xe614;" 
d="M861 552h-49l4 88q2 40 -25 69q-28 29 -70 29h-420q-42 0 -70 -29q-27 -29 -25 -69l5 -88h-49q-31 0 -50.5 -23.5t-19.5 -59.5v-346q0 -34 17.5 -57.5t44.5 -26.5v0q0 -13 9.5 -22.5t22.5 -9.5h77q13 0 22 9.5t9 22.5h436q0 -13 9 -22.5t22 -9.5h77q13 0 22.5 9.5
t9.5 22.5q-1 0 -1 1q28 3 45.5 26.5t17.5 56.5v346q0 36 -20 59.5t-51 23.5zM260 85h-98q-11 0 -17 11.5t-6 26.5v346q0 14 5.5 25t17.5 11h94q1 0 4 -1q10 -1 17.5 -12t7.5 -26v-1l14 -204l13 -176h-52zM664 85h-306l-9 140h325zM686 393v-1l-1 -1l-8 -119h-332l-8 119v1v1
l-6 74q0 35 -21.5 59.5t-52.5 24.5l-4 92q-1 20 12 34q14 14 36 14h420q22 0 36 -14t13 -34l-5 -92q-30 0 -52 -24.5t-22 -59.5zM885 123q0 -15 -6.5 -26.5t-17.5 -11.5h-150l11 162l16 218v1q0 15 7 26t18 12q3 1 4 1h94q12 0 18 -10.5t6 -25.5v-346z" />
    <glyph glyph-name="uniE615" unicode="&#xe615;" 
d="M90 -92q-17 0 -28.5 11.5t-11.5 28.5v76q0 10 14 22t30 19l209 113l-12 10q-45 36 -68 100t-23 116v127q0 61 69 114t147 53t146 -53t68 -114v-127q0 -60 -21 -121t-65 -95l-12 -10l203 -113q18 -7 31.5 -18.5t13.5 -22.5v-76q0 -17 -11.5 -28.5t-28.5 -11.5h-650z
M416 659q-64 0 -120.5 -44.5t-56.5 -83.5v-127q0 -45 20 -101t56 -84q21 -17 18.5 -43.5t-25.5 -39.5l-194 -105l-4 -2q-8 -3 -17 -10l-4 -3v-69h652v70l-4 3q-8 6 -16 9q-3 1 -5 2l-189 105q-23 13 -25.5 39.5t18.5 42.5q37 30 54 84.5t17 101.5v127q0 40 -54.5 84
t-120.5 44zM859 58q-7 26 -16 39h109v70l-5 3q-8 5 -16 9l-4 2l-192 105q-24 12 -26 38.5t19 43.5q36 29 54.5 84t18.5 102v127q0 39 -56 84t-121 45t-117 -39q-19 5 -50 7q34 32 79 51.5t88 19.5q79 0 147.5 -53.5t68.5 -114.5v-127q0 -54 -20.5 -117t-67.5 -100l-13 -10
l206 -112q19 -8 32.5 -19.5t13.5 -21.5v-76q0 -16 -12 -28t-28 -12h-92z" />
    <glyph glyph-name="uniE616" unicode="&#xe616;" 
d="M853 65q0 -38 -26.5 -64.5t-64.5 -26.5h-364h-113h-1h-159v501h159q2 0 3 -0.5t3 -0.5h3q65 188 85 233q18 43 37.5 61.5t50.5 24.5q17 4 43 -6.5t52 -35.5t37 -66.5t-2 -100.5q-5 -17 -16 -64h251q35 0 51.5 -25t16.5 -66zM262 429h-91v-409v-1h91v1h22v405l1 3
q-2 1 -23 1zM808 475h-285l35 136q12 55 -17 94.5t-52 42.5q-14 1 -35 -9t-33 -37q-13 -30 -92 -248l1 -1v-1v-432h91v-1h341q19 0 32.5 13.5t13.5 32.5l45 364q0 19 -13 32.5t-32 13.5z" />
    <glyph glyph-name="uniE617" unicode="&#xe617;" 
d="M1010 704l-178 177q-7 7 -18.5 6t-20.5 -9l-85 -85l-36 -37l35 -35l142 -142l36 -36l37 37l84 85q9 8 10 19.5t-6 19.5zM890 620l-142 142l61 61l142 -143zM666 680l-35 36l-49 -50l-444 -444l-22 -21q-6 -6 -8 -14l-88 -265q-9 -25 -2 -32t32 1l266 88q7 3 13 9h1l21 21
l444 444l49 49l-36 36zM92 -36l68 204l137 -136zM178 191l448 448l142 -142l-448 -448z" />
    <glyph glyph-name="uniE618" unicode="&#xe618;" 
d="M1024 -32q-28 100 -92.5 180t-157.5 134q-17 8 -32 -7q-8 -17 7 -32q83 -49 141.5 -123.5t82.5 -164.5q0 -9 7.5 -14t17.5 -5h7q19 10 19 32zM250 282q-93 -54 -157.5 -134t-92.5 -180q0 -22 19 -32h7q16 0 25 19q24 90 82.5 164.5t141.5 123.5q18 9 7 32q-15 15 -32 7z
M512 634zM256 634q0 106 75 181t181 75t181 -75t75 -181t-75 -181t-181 -75t-181 75t-75 181zM320 186l192 89l-192 90v-179zM704 186v179l-192 -90z" />
    <glyph glyph-name="uniE619" unicode="&#xe619;" 
d="M856 727q-31 31 -74 31q-42 0 -73 -31q-6 -6 -6 -14.5t6 -14.5l43 -44q52 -51 76 -75q6 -6 14.5 -6t13.5 6q32 32 32 75q-1 42 -32 73zM840 624q-11 12 -59 59l-27 27q14 7 28 7q26 0 46 -19q19 -19 19 -45q0 -15 -7 -29zM676 668q-6 6 -14.5 6t-14.5 -6l-429 -429
q-5 -5 -6 -13l-53 -166q-3 -11 5 -20q6 -6 15 -6q3 0 6 1l170 54q6 2 9 7l428 427q6 6 6 14.5t-6 14.5zM243 187l68 -69l-101 -32zM349 138l-87 87l399 399l87 -87z" />
    <glyph glyph-name="uniE61A" unicode="&#xe61a;" 
d="M339 489q-21 0 -35.5 14.5t-14.5 34.5t14.5 34.5t35 14.5t35 -14.5t14.5 -34.5t-14.5 -34.5t-34.5 -14.5zM704 489q-20 0 -34.5 14.5t-14.5 34.5t14.5 34.5t35 14.5t35 -14.5t14.5 -34.5t-14.5 -34.5t-35.5 -14.5zM916 -118h-808q-25 0 -42 17.5t-17 41.5l68 703
q0 23 17.5 39.5t41.5 16.5h145q4 78 61 132t135.5 54t135 -54t60.5 -132h135q25 0 42 -17t17 -41l68 -699q0 -26 -17 -43.5t-42 -17.5zM517 840q-59 0 -102.5 -40.5t-47.5 -99.5h301q-4 59 -47.5 99.5t-103.5 40.5zM862 640q-1 15 -14 15h-134h-393h-145q-6 0 -9.5 -4
t-3.5 -9l-68 -703q0 -4 4 -7.5t9 -3.5h808q6 0 9.5 3.5t3.5 9.5z" />
    <glyph glyph-name="uniE61B" unicode="&#xe61b;" 
d="M1024 384q0 139 -68.5 257t-186.5 186.5t-257 68.5t-257 -68.5t-186.5 -186.5t-68.5 -257t68.5 -257t186.5 -186.5t257 -68.5t257 68.5t186.5 186.5t68.5 257zM236 202q14 -2 27 -2q79 0 141 51q-37 1 -66 24.5t-40 60.5q11 -3 21 -3q16 0 30 4q-39 9 -65 42.5t-26 76.5
v2q24 -14 52 -16q-23 17 -37 44t-14 57q0 33 16 61q42 -56 102.5 -90t130.5 -39q-3 13 -3 27q0 50 33 84.5t80 33.5q49 -1 83 -39q38 8 71 28q-12 -42 -49 -65q34 4 65 18q-23 -36 -57 -61q1 -7 1 -15q0 -60 -22 -119.5t-61 -108.5t-101.5 -79.5t-137.5 -30.5q-94 0 -174 54
z" />
    <glyph glyph-name="uniE61C" unicode="&#xe61c;" 
d="M512 896l-512 -288v-608q0 -53 37.5 -90.5t90.5 -37.5h768q53 0 90.5 37.5t37.5 90.5v608zM68 0v500l288 -231l-286 -288q-2 7 -2 19zM114 -63l294 295l104 -72l104 70l294 -292zM956 0q0 -15 -1 -19l-288 288l289 231v-500zM512 235l-448 341l447 245l449 -245z" />
    <glyph glyph-name="uniE61D" unicode="&#xe61d;" 
d="M633 482l-63 8l-27 50q-6 10 -17 10t-16 -10l-27 -52l-61 -8q-12 -2 -15.5 -13.5t5.5 -18.5l43 -40l-9 -55q-2 -11 7 -18q5 -3 11 -3q4 0 8 2l55 27l57 -26q10 -5 19 2t7 18l-12 55l45 40q8 8 4.5 19t-14.5 13zM566 430q-8 -7 -6 -17l6 -29l-31 14q-8 4 -16 0l-30 -15
l5 29q1 10 -6 17l-22 20l31 4q10 2 14 10l15 29l16 -28q4 -9 14 -10l32 -4zM975 703l-192 109q-2 1 -5 2l-101 20q-7 2 -13.5 -2t-8.5 -11q-12 -41 -49 -71q-33 -28 -98 -36q-59 9 -91 34q-36 30 -49 72q-6 15 -22 12l-100 -20q-3 -1 -5 -2l-192 -109q-6 -4 -8 -11.5
t1 -14.5l103 -183q4 -7 11.5 -9t14.5 2l38 24q-26 -175 -2 -355q2 -11 13 -15l37 -12q42 -17 76 -47q55 -44 61 -107q0 -7 5 -11.5t13 -4.5l124 -4h2l74 6q16 1 17 16q7 64 61 108q56 46 111 57q12 3 14 14q41 171 3 354l34 -21q6 -4 14 -2t12 9l104 183q3 7 1 14.5t-8 11.5
zM855 529l-55 35q-10 6 -20.5 -1.5t-7.5 -19.5q49 -191 10 -369q-58 -15 -116 -62q-59 -49 -71 -118l-59 -4l-108 3q-11 68 -71 116q-39 33 -87 52q0 1 -1 1l-27 9q-23 189 10 372q2 11 -8 18t-20 1l-56 -35l-84 151l173 98l81 17q18 -42 55 -74h1q40 -32 111 -42h5
q78 9 120 44q38 32 55 74l82 -17l173 -98z" />
    <glyph glyph-name="uniE61E" unicode="&#xe61e;" 
d="M511.5 832q-91.5 0 -174.5 -35.5t-143 -95.5t-95.5 -143t-35.5 -174.5t35.5 -174.5t95.5 -143t143 -95.5t174.5 -35.5t174.5 35.5t143 95.5t95.5 143t35.5 174.5t-35.5 174.5t-95.5 143t-143 95.5t-174.5 35.5zM511.5 -1q-104.5 0 -193 51.5t-140 140t-51.5 193t51.5 193
t140 140t193 51.5t193 -51.5t140 -140t51.5 -193t-51.5 -193t-140 -140t-193 -51.5zM765 421h-216v216h-75v-216h-216v-75h216v-216h75v216h216v75z" />
    <glyph glyph-name="uniE61F" unicode="&#xe61f;" 
d="M837 374q41 39 41 96q0 56 -39 95.5t-94.5 39.5t-95 -39.5t-39.5 -95.5q0 -57 42 -97q-43 -21 -73 -60q-34 30 -76 49q33 27 51.5 66t18.5 84q0 80 -57 137t-137 57t-137 -57t-57 -137q0 -45 18.5 -84t51.5 -66q-81 -36 -131 -112t-50 -165q0 -8 5.5 -13.5t13.5 -5.5
t13 5.5t5 13.5q0 85 51 155t132 97q41 -20 85.5 -20t84.5 20q81 -27 131.5 -97t50.5 -155q0 -8 5.5 -13.5t13 -5.5t13 5.5t5.5 13.5q0 115 -77 202q32 44 83 61q26 -12 55 -12t56 13q52 -18 84 -63t32 -99q0 -8 5.5 -13.5t13.5 -5.5t13 5.5t5 13.5q0 59 -31.5 110t-84.5 77z
M305 372q-4 4 -9 6q-37 21 -58.5 57.5t-21.5 80.5q0 66 47 113t113.5 47t113.5 -47t47 -113q0 -44 -22 -81t-59 -58q-4 -1 -7 -4q-34 -17 -73 -17q-37 0 -71 16zM702 386q0 1 -1 1q-24 13 -38 36t-14 51q0 41 29 70t70 29t70 -29t29 -70t-29 -70t-70 -29q-24 0 -46 11z" />
    <glyph glyph-name="uniE620" unicode="&#xe620;" 
d="M448 832h128v-895h-128v895zM384 -127h256v1023h-256v-1023zM64 448h128v-511h-128v511zM0 -127h256v639h-256v-639zM832 640h128v-703h-128v703zM768 -127h255v831h-255v-831z" />
    <glyph glyph-name="uniE621" unicode="&#xe621;" 
d="M695 784q-105 0 -182 -72q-77 72 -183 72q-110 0 -187.5 -76t-77.5 -184q0 -43 15 -89t41 -87.5t60 -82.5t71 -76.5t74 -67.5t70.5 -57t59.5 -43t42 -28l15 -10q9 6 25 16.5t63 44t89 68.5t94 86.5t89 101.5t62.5 110t25.5 114q0 108 -78 184t-188 76z" />
    <glyph glyph-name="uniE622" unicode="&#xe622;" 
d="M967 547l-131 226q-7 11 -19.5 18.5t-25.5 7.5h-552q-12 0 -25 -7.5t-19 -18.5l-131 -226q-5 -8 -8 -13l-2 -4q-5 -10 0 -17l4 -8h2q3 -4 8 -11l423 -542q4 -5 9 -8l4 -2q6 -3 11.5 -3t11.5 3l4 2q5 3 9 8l423 542q8 11 9 26t-5 27zM937 536h-217l94 213zM515 756
l151 -220h-301zM338 552l-96 215h244zM545 767h243l-95 -215zM675 505l-159 -508l-160 508h319zM217 749l94 -213h-217zM99 505h225l151 -482zM707 505h225l-376 -482zM707 505z" />
    <glyph glyph-name="uniE623" unicode="&#xe623;" 
d="M967 547l-131 226q-7 11 -19.5 18.5t-25.5 7.5h-552q-12 0 -25 -7.5t-19 -18.5l-131 -226q-5 -8 -8 -13l-2 -4q-5 -10 0 -17l4 -8h2q3 -4 8 -11l423 -542q4 -5 9 -8l4 -2q6 -3 11.5 -3t11.5 3l4 2q5 3 9 8l423 542q8 11 9 26t-5 27zM937 536h-217l94 213zM515 756
l151 -220h-301zM338 552l-96 215h244zM545 767h243l-95 -215zM675 505l-159 -508l-160 508h319zM217 749l94 -213h-217zM99 505h225l151 -482zM707 505h225l-376 -482zM707 505z" />
    <glyph glyph-name="uniE624" unicode="&#xe624;" 
d="M835.5 666.5q-56.5 56.5 -129.5 86.5t-153 30q-126 0 -229 -72t-146 -190l-41 72q-7 13 -21 16.5t-26.5 -3.5t-16.5 -21t3 -27l86 -148q10 -18 30 -18q9 0 17 5l149 85q12 7 16 21t-3.5 26.5t-21 16.5t-26.5 -3l-79 -46q35 97 120 156.5t189 59.5q89 0 165 -44t120 -120
t44 -165t-44 -165t-120 -120t-165 -44q-106 0 -191.5 61.5t-120.5 161.5q-4 13 -17 19.5t-26.5 2t-20 -17.5t-2.5 -27q42 -121 146 -195.5t232 -74.5q80 0 153 30t129.5 86.5t86.5 129.5t30 153t-30 153t-86.5 129.5z" />
    <glyph glyph-name="uniE625" unicode="&#xe625;" 
d="M939 597v-597q0 -53 -37.5 -90.5t-90.5 -37.5h-598q-53 0 -90.5 37.5t-37.5 90.5v597q0 53 37.5 90.5t90.5 37.5h171v-85h-171q-17 0 -29.5 -12.5t-12.5 -30.5v-597q0 -18 12.5 -30.5t29.5 -12.5h598q17 0 29.5 12.5t12.5 30.5v597q0 18 -12.5 30.5t-29.5 12.5h-171v85
h171q53 0 90.5 -37.5t37.5 -90.5zM713 371q-13 13 -30.5 13t-29.5 -13l-98 -97v579q0 18 -12.5 30.5t-30.5 12.5t-30.5 -12.5t-12.5 -30.5v-579l-98 97q-12 13 -29.5 13t-30 -12.5t-12.5 -30t12 -30.5l171 -170q12 -13 30 -13t30 13l171 170q12 13 12 30.5t-12 29.5z" />
    <glyph glyph-name="uniE626" unicode="&#xe626;" 
d="M528 131q3 2 6 5l360 360q9 9 9 21.5t-9 21.5t-21.5 9t-21.5 -9l-339 -339l-339 339q-9 9 -21.5 9t-21.5 -9t-9 -22t9 -22l360 -360q17 -17 38 -4z" />
    <glyph glyph-name="uniE627" unicode="&#xe627;" horiz-adv-x="1062" 
d="M715 431q0 -22 16 -37.5t38.5 -15.5t38 15.5t15.5 38t-15.5 38t-38 15.5t-38.5 -15.5t-16 -38.5zM477 431q0 -22 15.5 -37.5t38 -15.5t38 15.5t15.5 38t-15.5 38t-38 15.5t-38 -15.5t-15.5 -38.5zM238 431q0 -22 15.5 -37.5t38 -15.5t38.5 15.5t16 38t-16 38t-38.5 15.5
t-38 -15.5t-15.5 -38.5zM529 66q-75 0 -145 22l-36 -31h2l-64 -46l-1 83v37q-84 51 -133 129.5t-49 169.5q0 99 57 182.5t155 132.5t213.5 49t214 -49t155.5 -132.5t57 -182.5t-57 -183t-155.5 -132.5t-213.5 -48.5v0zM529 834q-127 0 -234.5 -54t-170 -147t-62.5 -203
q0 -96 49 -180t134 -141v-170l152 103q64 -16 132 -16q126 0 233.5 54t170 147t62.5 203t-62.5 203t-170 147t-233.5 54z" />
    <glyph glyph-name="uniE628" unicode="&#xe628;" 
d="M305 -61h-211q-11 0 -18.5 7.5t-7.5 18.5v584q0 11 7.5 18.5t18.5 7.5h211q11 0 19 -7.5t8 -18.5v-584q0 -11 -8 -18.5t-19 -7.5zM121 -9h158v531h-158v-531zM618 -61h-211q-11 0 -19 7.5t-8 18.5v404q0 11 8 18.5t19 7.5h211q11 0 18.5 -7.5t7.5 -18.5v-404
q0 -11 -7.5 -18.5t-18.5 -7.5zM433 -9h158v352h-158v-352zM930 -61h-211q-11 0 -18.5 7.5t-7.5 18.5v839q0 11 7.5 19t18.5 8h211q11 0 19 -8t8 -19v-839q0 -11 -8 -18.5t-19 -7.5zM746 -9h158v787h-158v-787z" />
    <glyph glyph-name="uniE629" unicode="&#xe629;" 
d="M916 688q0 26 -13.5 47t-36.5 32l1 1l-5 1q-7 4 -15 6l-167 45v-62l159 -43q17 -8 17 -27l44 -202q0 -13 -9 -21.5t-21 -8.5h-39v57h-59v-490q0 -12 -9 -21t-21 -9h-27h-180h-66h-192q-12 0 -19 8.5t-7 21.5v494h-59v-57h-41q-12 0 -20.5 8.5t-8.5 20.5l43 202
q0 19 17 27l157 40v62l-163 -41q-10 -3 -19 -7h-1q-23 -11 -36.5 -32.5t-13.5 -48.5l-44 -202q0 -37 26 -63t63 -26h41v-377q0 -37 24.5 -63t60.5 -26h465q37 0 63 26t26 63v374h39q37 0 63 26t26 63zM679 820q-25 -48 -70.5 -77t-100 -29t-100.5 29t-70 77l-57 -14
q30 -67 91.5 -108.5t135.5 -41.5q75 0 136.5 41t90.5 108z" />
    <glyph glyph-name="uniE62A" unicode="&#xe62a;" 
d="M972 621l-570 -544l-350 334l73 70l277 -264l497 474z" />
    <glyph glyph-name="uniE62B" unicode="&#xe62b;" 
d="M787 570q0 107 -76.5 183t-183 76t-183 -76t-76.5 -183q0 -79 43.5 -143t114.5 -96q-123 -36 -200.5 -137.5t-77.5 -232.5v-24q0 -6 6 -11t13 -5h2q8 0 13 6t3 14v20q0 95 47 175t128 126.5t177 46.5h3q104 7 175.5 82.5t71.5 178.5zM527 348q-91 0 -156.5 65.5
t-65.5 157t65.5 156.5t157 65t156.5 -65t65 -156.5t-65 -157t-157 -65.5zM527 348zM169 -82h-2q-9 0 -15.5 6t-6.5 13v24q0 128 75 230t198 141q-70 33 -111 97.5t-41 140.5q0 108 76.5 185t185 77t185 -77t76.5 -185q0 -104 -72 -180.5t-176 -83.5h-4q-95 0 -175 -46
t-127 -125.5t-47 -173.5v-20q2 -9 -4 -16t-15 -7zM527.5 826q-105.5 0 -181 -75t-75.5 -181q0 -76 42.5 -140.5t113.5 -95.5l7 -3l-7 -2q-124 -37 -200 -138.5t-76 -229.5v-24q0 -5 5 -9t11 -4h2q6 0 10 4q5 5 3 13v20q0 96 47.5 176.5t129.5 127.5t178 47h3q103 7 173.5 82
t70.5 176q0 106 -75.5 181t-181 75zM527 345q-93 0 -158.5 66t-65.5 159t65.5 159t158.5 66t159 -66t66 -159t-66 -159t-159 -66zM527.5 789q-90.5 0 -155 -64t-64.5 -154.5t64.5 -155t155 -64.5t155 64.5t64.5 155t-64.5 154.5t-155 64zM925 13v2q0 41 -29 70.5t-71 29.5
h-127q-41 0 -70.5 -29.5t-29.5 -70.5v-2q0 -6 1 -14h47q-2 7 -2 14v2q0 22 16 38t38 16h127q23 0 39 -16t16 -38v-2q0 -23 -16 -39t-39 -16h-57q-11 -25 -32 -45h89q42 0 71 29t29 71v0v0zM740 15q0 6 -1 13h-47q2 -6 2 -13v-2q0 -23 -16 -39t-38 -15h-128q-22 0 -38 15.5
t-16 38.5v2q0 22 16 38t38 16h58q11 26 31 46h-89q-41 0 -70 -29.5t-29 -70.5v-2q0 -42 29 -71t70 -29h128q41 0 70.5 29t29.5 71v2v0zM921 14q-19 142 -125 236q-12 12 -26 -2q-12 -12 2 -26q93 -84 112 -208h37zM925 11h-43l-1 2q-18 124 -111 207q-7 7 -7.5 15.5
t5.5 14.5q6 7 15 7.5t15 -5.5q107 -95 126 -238zM887 17h31q-20 139 -124 231q-10 10 -22 -2q-10 -10 2 -22q93 -84 113 -207zM388 841zM106 -75q-9 0 -15.5 6t-7.5 15q-2 18 -2 36q0 113 57 210.5t153 150.5q-93 95 -93 228q0 73 31 138.5t88 111.5q7 7 16.5 6t16 -8.5
t5.5 -17t-9 -15.5q-48 -40 -74.5 -96.5t-26.5 -119t26.5 -119t75.5 -96.5q10 -8 8 -20.5t-14 -18.5q-97 -43 -155 -134t-58 -200q0 -16 1 -32q1 -10 -5 -17t-16 -8h-2z" />
  </font>
</defs>
</svg>
